<svg xmlns="http://www.w3.org/2000/svg" width="256" height="256"><path fill="#1976D2" fill-opacity=".016" fill-rule="evenodd" d="M0 128.004v128.004l128.25-.254 128.25-.254.254-127.75L257.008 0H0zm.485.496c0 70.4.119 99.053.265 63.672s.146-92.98 0-128S.485 58.1.485 128.5"/><path fill="#1976D2" fill-opacity=".239" fill-rule="evenodd" d="M107.921 1.419C61.401 9.643 23.993 40.591 7.448 84.542c-8.395 22.303-9.713 51.83-3.388 75.953 11.004 41.974 44.259 76.921 85.44 89.79 45.368 14.177 94.992 1.893 129.041-31.942 20.305-20.178 30.91-41.746 37.321-75.903 1.423-7.579 1.534-30.601.138-28.44-.728 1.127-.975.629-.992-2-.026-4.197-3.068-17.24-6.086-26.096-13.994-41.067-49.965-73.109-93.213-83.03-11.702-2.685-36.552-3.441-47.788-1.455M.392 127c0 7.425.157 10.463.35 6.75s.192-9.787 0-13.5c-.193-3.713-.35-.675-.35 6.75"/><path fill="#1976D2" fill-opacity=".502" fill-rule="evenodd" d="M116 .682c-20.689 2.14-43.256 10.517-60.858 22.589-9.921 6.804-25.286 22.178-32.001 32.018C1.458 87.066-5.137 124.526 4.577 160.736c16.21 60.423 74.084 100.708 135.576 94.371 31.314-3.227 56.301-15.271 78.866-38.013 19.619-19.772 31.659-44.151 36.138-73.167 1.461-9.472 2.118-29.191.88-26.427-.736 1.643-.909 1.345-.967-1.662-.212-11.087-6.448-32.326-13.612-46.365-15.811-30.986-45.302-55.113-78.915-64.56C148.651 1.008 129.593-.724 116 .682m-8 19.894c-39.094 7.085-72.161 36.486-84.293 74.948-7.873 24.959-5.741 54.896 5.619 78.876 6.231 13.154 11.604 20.73 22.079 31.132 16.337 16.223 33.559 25.374 56.472 30.007 12.597 2.547 36.292 1.615 48.929-1.924 51.237-14.349 84.623-62.061 80.076-114.433-3.819-43.978-32.511-80.577-74.36-94.851-15.289-5.215-37.882-6.771-54.522-3.755M67.132 73.049c-6.95 1.411-13.191 4.94-19.382 10.959-11.553 11.231-4.692 15.221 8.624 5.015C65.328 82.16 70.029 80 76.01 80c5.611 0 9.456 1.608 15.49 6.477C97.094 90.991 101.339 93 105.284 93c4.315 0 4.777-.526 3.551-4.044-1.29-3.699-7.831-9.599-13.165-11.874-8.571-3.656-21.443-5.475-28.538-4.033M173 76.545c-12.258 3.357-21 9.615-21 15.032 0 2.23.385 2.423 4.836 2.423 4.318 0 5.516-.546 11.185-5.095 7.397-5.937 9.563-6.905 15.443-6.905 5.341 0 12.295 3.514 22.389 11.317 7.621 5.89 10.037 6.725 12.136 4.196 2.065-2.488.298-6.097-5.525-11.287-8.862-7.899-15.329-10.682-25.464-10.957-5.182-.14-10.647.358-14 1.276M63.25 90.989C57.522 94.481 59.418 96 69.506 96c4.621 0 9.135.95 16.635 3.5 19.776 6.725 25.17 2.718 6.239-4.636-16.814-6.53-23.349-7.4-29.13-3.875m57.417.678c-.834.833-.875 7.627-.06 9.751.785 2.046 4.001 2.046 4.786 0 .334-.87.607-2.858.607-4.418s-.273-3.548-.607-4.418c-.612-1.594-3.49-2.151-4.726-.915m15.295.878c-1.542 1.859-1.65 8.167-.164 9.653.544.544 1.825.829 2.846.632 1.538-.296 1.856-1.294 1.856-5.83 0-5.898-1.84-7.705-4.538-4.455m44.39-.079c-2.831.792-9.131 2.924-14 4.737-7.198 2.681-8.912 3.717-9.172 5.547-.435 3.067.99 2.948 15.872-1.319 10.515-3.016 13.457-3.485 18.948-3.025 3.575.299 7.175.119 8-.4 1.267-.797 1.082-1.363-1.185-3.637-3.304-3.315-10.695-4.076-18.463-1.903m-122.709 8.065c-7.213 1.812-15.22 5.734-18.952 9.284l-2.808 2.672 2.169 1.756c1.193.966 2.873 1.757 3.733 1.757 1.225 0 1.074.521-.696 2.406-1.913 2.036-2.08 2.742-1.086 4.6.973 1.818 1.718 2.079 4.336 1.522 5.534-1.179 7.997-.857 15.161 1.985 6.267 2.487 8.308 2.787 19.5 2.872 10.867.082 13.122-.191 17.262-2.094 5.325-2.448 6.764-4.693 4.474-6.983-1.383-1.383-2.488-1.376-11.01.077-15.228 2.596-20.009 1.995-33.753-4.244l-6.319-2.868 2.423-1.581c1.333-.869 4.322-2.005 6.644-2.523l4.221-.943 2.568 4.381c2.681 4.574 6.764 7.393 10.709 7.393 1.275 0 4.496-1.8 7.158-4s5.03-4 5.26-4c.231 0 3.094 1.35 6.363 3 9.895 4.995 17.461 3.317 11.877-2.634-1.308-1.393-7.033-4.848-12.725-7.678-10.206-5.074-10.486-5.148-20.5-5.386-6.4-.153-12.316.302-16.009 1.229m118.857 2.931c-9.147 2.668-24.986 9.389-26 11.034-.752 1.218-.518 1.979.941 3.063 2.931 2.176 6.202 1.762 13.82-1.749l6.92-3.19 3.16 3.605c6.79 7.748 11.168 7.802 18.164.224l5.125-5.551 4.927 1.829c7.762 2.882 6.912 4.306-4.804 8.046-11.952 3.815-13.756 3.899-25.838 1.208-7.607-1.694-9.482-1.815-11.666-.75-4.147 2.023-3.815 3.597 1.216 5.754 14.795 6.342 32.483 6.734 40.689.902 3.261-2.318 5.75-2.377 10.221-.245 1.894.903 4.159 1.367 5.034 1.031 1.839-.705 2.075-3.9.505-6.834-.89-1.663-.709-2.294 1-3.491 2.801-1.962 2.629-3.454-.774-6.714-7.203-6.901-31.218-11.503-42.64-8.172m-102.473 5.005c-.659.795-.921 1.895-.581 2.446.828 1.339 3.554.219 3.554-1.461 0-2.052-1.637-2.594-2.973-.985m109.15 3.2c.486 2.509 2.823 2.853 2.823.416 0-1.228-.646-2.083-1.573-2.083-.932 0-1.442.68-1.25 1.667M.37 127c0 5.775.165 8.137.367 5.25s.202-7.612 0-10.5S.37 121.225.37 127m126.172-7.75c-.218.688-1.621 7.325-3.118 14.75a6117 6117 0 0 1-3.19 15.75c-.458 2.205-.281 2.25 8.758 2.25 9.077 0 9.216-.036 8.658-2.258-.862-3.435-3.432-19.515-4.153-25.992-.62-5.56-.739-5.75-3.6-5.75-1.628 0-3.138.563-3.355 1.25m-25.016 30.721c-2.366 2.614-1.609 8.506 1.851 14.41 2.444 4.17 2.848 4.416 8.346 5.097 7.179.888 8.277 1.771 8.277 6.659 0 3.318.479 4.185 3.25 5.874 1.787 1.09 4.427 1.983 5.865 1.985 3.857.006 7.885-3.564 7.885-6.987 0-4.878.917-6.009 4.873-6.009 8.564 0 15.127-6.763 15.127-15.589 0-8.201-2.24-8.179-6.146.06-2.728 5.754-5.511 7.494-12.022 7.514-4.25.014-4.863.329-6.832 3.515-2.517 4.073-4.175 4.411-5.891 1.203-1.757-3.282-4.776-4.881-10.552-5.587-5.021-.613-5.055-.642-8.182-6.915-1.727-3.465-3.346-6.505-3.597-6.756s-1.265.435-2.252 1.526M66.962 174.11C60.404 180.988 60 181.68 60 186.032c0 3.536.543 5.129 2.314 6.794 3.583 3.366 5.312 2.75 7.239-2.576.945-2.613 2.782-5.74 4.081-6.95l2.362-2.2 5.755 2.855c25.887 12.844 58.589 14.439 84.213 4.108 16.158-6.514 17.279-6.252 20.04 4.687.895 3.545 1.478 4.25 3.511 4.25 3.275 0 5.413-3.516 5.63-9.26.141-3.733-.264-5.016-2.04-6.454-1.22-.987-3.429-4.043-4.911-6.791-2.051-3.803-3.326-5.068-5.343-5.302-2.327-.269-2.98.371-5.375 5.267-5.307 10.846-10.072 12.783-30.897 12.556-7.744-.085-15.654-.09-17.579-.013-1.925.078-10.925-.274-20-.781-21.908-1.226-24.512-2.4-29.977-13.511-1.388-2.822-3.102-5.304-3.811-5.517-.708-.212-4.42 2.9-8.25 6.916m6.705 16.557c-.367.366-.667.999-.667 1.406 0 1.08 8.139 6.739 19 13.209 24.891 14.83 38.265 15.879 62 4.865 6.875-3.19 14.903-6.874 17.841-8.187 5.523-2.468 10.642-7.369 9.547-9.14-.815-1.319-7.839-.252-15.176 2.305-13.408 4.672-28.297 7.875-36.53 7.858-10.32-.022-17.533-1.558-37.151-7.91-15.985-5.176-17.696-5.575-18.864-4.406"/><path fill="#1976D2" fill-opacity=".548" fill-rule="evenodd" d="M108.585 2.107C76.71 6.756 45.741 25.508 25.972 52.13 15.703 65.959 9.478 78.956 4.412 97.144c-3.607 12.951-4.517 38.013-1.908 52.558 7.769 43.316 35.642 78.364 76.227 95.849 18.074 7.787 42.368 11.528 61.162 9.42 51.823-5.814 93.595-39.489 109.517-88.289 7.998-24.512 7.98-51.515-.05-76.937-14.261-45.144-53.063-79.186-99.313-87.13-10.106-1.736-31.266-1.996-41.462-.508m5.623 16.894C85.896 22.994 59.945 37.595 42.35 59.43c-7.843 9.734-17.468 28.673-20.364 40.07-3.521 13.858-4.479 25.31-3.168 37.884 1.639 15.72 4.365 25.289 11.145 39.116 14.813 30.209 40.191 50.39 73.83 58.712 10.648 2.634 33.634 3.096 44.707.899 8.244-1.637 21.948-6.299 29-9.868 27.555-13.943 49.06-40.557 57.183-70.766 2.42-9.002 2.68-11.639 2.659-26.977-.021-15.027-.32-18.111-2.58-26.574-3.378-12.646-7.678-22.759-13.576-31.926C204.773 44.487 180.512 27.276 152 20.917c-9.964-2.223-28.837-3.179-37.792-1.916M62.747 74.45c-9.006 3.473-18.458 11.569-20.198 17.3-.617 2.031-.348 2.25 2.774 2.25 2.369 0 4.99-1.109 8.318-3.519 20.314-14.71 24.244-14.89 41.554-1.897 4.917 3.691 10.288 5.168 12.768 3.511 1.276-.851 1.252-1.421-.186-4.437C104.008 79.754 91.32 74.065 76 73.409c-6.742-.289-10.59.014-13.253 1.041m112.462 2.075c-6.221 1.351-15.233 5.129-18.284 7.666-2.708 2.251-5.17 6.727-4.566 8.301.659 1.718 5.223 1.998 9.024.553 1.382-.526 4.223-2.49 6.315-4.364 11.244-10.079 20.1-9.589 35.221 1.951 11.9 9.082 15.081 9.988 15.081 4.294 0-3.483-4.755-8.518-13.196-13.974-9.056-5.853-17.328-7.091-29.595-4.427M66 89.709c-1.889.695-5 3.373-5 4.305 0 .387 3.713.956 8.25 1.265 5.82.395 11.195 1.609 18.25 4.119 9.871 3.513 15.5 4.484 15.5 2.673 0-1.954-3.239-3.988-11.224-7.044C77.987 89.748 70.24 88.15 66 89.709m55.25 1.953c-1.74.702-1.567 7.546.25 9.897 1.485 1.921 1.515 1.921 3 0 1.745-2.258 1.939-5.869.465-8.625-1.061-1.983-1.544-2.148-3.715-1.272m63.75.444c-5.221.763-22.452 6.474-25.75 8.535-1.238.773-2.25 1.845-2.25 2.382 0 1.782 6.375.992 16.413-2.034 7.584-2.287 11.871-2.989 18.25-2.989 6.436 0 8.337-.316 8.337-1.385 0-3.444-7.293-5.636-15-4.509m-49.573 2.329c-.852 3.393.246 7.502 2.204 8.254 2.226.854 3.434-1.533 3.13-6.189-.213-3.27-.665-4.057-2.476-4.315-1.671-.238-2.372.315-2.858 2.25m-75.41 6.129c-8.291 1.797-13.205 3.781-18.656 7.531-5.124 3.526-5.485 5.317-1.361 6.755 3.334 1.162 3.741 2.29 1.5 4.15-1.907 1.582-1.911 3.414-.011 4.991 1.189.987 2.246.932 5.259-.273 3.455-1.383 4.065-1.357 7.309.307 6.439 3.303 15.292 4.977 26.087 4.931 10.69-.045 16.419-1.346 19.93-4.523 1.751-1.585 1.792-1.924.415-3.445-1.402-1.549-2.201-1.57-9.758-.255-13.308 2.315-22.575 1.407-33.08-3.24-8.781-3.884-8.832-3.928-6.67-5.679 2.207-1.787 8.122-3.798 11.202-3.808.925-.003 1.977.924 2.338 2.06.36 1.136 2.012 3.611 3.671 5.5 2.497 2.844 3.707 3.434 7.04 3.434 3.196 0 4.824-.721 7.9-3.5 2.13-1.925 4.507-3.5 5.281-3.5s4.26 1.35 7.747 2.999c7.091 3.355 10 3.718 11.856 1.482 1.965-2.368-1.072-4.939-12.483-10.563-14.179-6.989-22.315-8.215-35.516-5.354M181 103.006c-4.29.8-7.185 1.764-21.972 7.32-7.546 2.835-9.536 5.043-6.547 7.261 2.476 1.839 6.099 1.13 13.672-2.677l5.653-2.841 4.465 4.466c3.859 3.858 5.032 4.465 8.633 4.465 4.29 0 5.168-.62 10.474-7.395 2.014-2.57 2.679-2.817 5.941-2.205 3.368.632 9.85 4.952 8.681 5.787-.275.196-4.775 1.816-10 3.599-10.718 3.658-18.029 4.122-27 1.714-7.466-2.004-11.339-1.888-13.412.403-1.663 1.837-1.522 1.978 4.095 4.093 15.891 5.984 28.393 6.275 38.861.906 5.917-3.035 6.206-3.083 9.232-1.518 6.075 3.142 9.306 1.642 7.235-3.359-1.031-2.488-.913-3.123.926-4.962 1.659-1.659 1.889-2.52 1.078-4.035-1.66-3.102-4.946-4.901-14.515-7.949-10.204-3.25-18.918-4.3-25.5-3.073m-107.333 4.661c-1.208 1.207-.695 4.333.711 4.333 1.845 0 3.956-2.651 3.149-3.956-.727-1.177-2.853-1.385-3.86-.377m109.143 1.856c-.326.326-.358 1.489-.072 2.583.666 2.548 3.762 2.049 3.762-.606 0-1.892-2.458-3.209-3.69-1.977m-55.06 9.557c-.973.567-1.758 2.218-1.768 3.72-.01 1.485-1.285 8.438-2.832 15.451-1.548 7.013-2.59 12.976-2.316 13.25.275.275 4.185.499 8.691.499h8.191l-1.774-8.516c-.976-4.684-2.096-11.997-2.489-16.25-.815-8.815-1.901-10.368-5.703-8.154m-26.829 32.067c-1.432 2.677.117 8.627 3.673 14.103 2.225 3.427 2.826 3.75 6.986 3.75 6.826 0 8.42 1.232 8.42 6.51 0 3.904.355 4.622 2.95 5.964 3.305 1.709 8.779 1.983 11.04.553.82-.518 1.947-3.093 2.505-5.723 1.003-4.727 1.066-4.788 5.638-5.442 5.732-.82 7.945-1.977 11.219-5.869 2.841-3.375 4.205-8.637 3.239-12.486-.964-3.843-2.369-3.03-5.238 3.03-3.012 6.36-3.86 6.948-11.353 7.877-4.661.577-6.005 1.246-8.811 4.384-2.527 2.826-3.453 3.349-3.913 2.212-1.518-3.753-5.975-6.781-10.998-7.472-5.809-.799-7.298-2.085-10.171-8.788-2.243-5.232-3.453-5.84-5.186-2.603m-34.327 23.975C61.592 180.524 60 182.95 60 185.171c0 3.992 2.468 8.457 5.047 9.131 1.783.466 2.445-.202 4.085-4.123 4.216-10.079 4.732-10.333 13.027-6.414 14.768 6.978 30.826 10.438 48.341 10.418 14.608-.018 24.012-1.857 36.795-7.199 5.245-2.191 10.629-3.984 11.965-3.984 3.368 0 5.473 2.69 6.882 8.796.859 3.72 1.679 5.204 2.875 5.204 2.841 0 5.25-3.727 5.747-8.892.399-4.153.166-5.075-1.507-5.971-1.088-.582-3.236-3.543-4.772-6.579-2.808-5.549-5.75-7.693-7.778-5.665-.6.6-2.467 3.682-4.149 6.849-2.394 4.509-4.026 6.246-7.52 8.008-4.067 2.051-5.863 2.25-20.316 2.25-9.377 0-16.673.438-17.859 1.073-1.438.77-2.903.755-5.184-.051-1.748-.618-9.479-1.366-17.179-1.662-20.664-.793-24.493-2.421-29.082-12.361-1.825-3.955-3.359-5.999-4.5-5.999-.952 0-4.698 3.205-8.324 7.122m7.495 15.823c-1.654 1.022 2.5 4.441 14.179 11.671 27.058 16.751 42.504 18.503 65.232 7.402a669 669 0 0 1 15.629-7.342C176.507 199.355 181 196.071 181 194c0-1.925-6.931-.97-17.885 2.464-19.459 6.101-23.097 6.841-33.615 6.834-11.31-.007-17.206-1.233-37.812-7.862a9993 9993 0 0 0-15.279-4.908c-.6-.189-1.644-.001-2.32.417"/></svg>